<svg xmlns="http://www.w3.org/2000/svg" width="1600" height="900" viewBox="0 0 1600 900"><style>
@font-face{font-family:'Libre Baskerville';src:url(fonts/LibreBaskerville-Variable.ttf);font-weight:400 700}
@font-face{font-family:'Libre Baskerville';font-style:italic;src:url(fonts/LibreBaskerville-Italic-Variable.ttf);font-weight:400 700}
@font-face{font-family:'IBM Plex Mono';src:url(fonts/IBMPlexMono-Regular.ttf);font-weight:400}
@font-face{font-family:'IBM Plex Mono';src:url(fonts/IBMPlexMono-Bold.ttf);font-weight:700}
@font-face{font-family:Kalam;src:url(fonts/Kalam-Regular.ttf);font-weight:400}
@font-face{font-family:Kalam;src:url(fonts/Kalam-Bold.ttf);font-weight:700}</style><defs>
<filter id="grain" x="0" y="0" width="100%" height="100%">
  <feTurbulence type="fractalNoise" baseFrequency="0.85" numOctaves="2" stitchTiles="stitch"/>
  <feColorMatrix type="saturate" values="0"/>
  <feComponentTransfer><feFuncA type="linear" slope="0.07"/></feComponentTransfer>
</filter>
<filter id="stamp" x="-10%" y="-20%" width="120%" height="140%">
  <feTurbulence type="fractalNoise" baseFrequency="0.55" numOctaves="2" seed="4" result="n"/>
  <feColorMatrix in="n" type="matrix" values="0 0 0 0 1 0 0 0 0 1 0 0 0 0 1 -9 0 0 0 6.2" result="m"/>
  <feComposite in="SourceGraphic" in2="m" operator="in"/>
</filter>
<filter id="lift" x="-10%" y="-10%" width="125%" height="130%">
  <feDropShadow dx="5" dy="9" stdDeviation="11" flood-color="#3B3023" flood-opacity="0.22"/>
</filter></defs><rect x="-50" y="-50" width="1700" height="1000" fill="#F4EFE4"/><text x="80" y="96" font-family="'Libre Baskerville', Georgia, serif" font-size="42" fill="#1D1D1B" font-weight="700" xml:space="preserve" text-anchor="start" font-style="normal" letter-spacing="0">Where does an instruction go?</text><text x="80" y="138" font-family="'Libre Baskerville', Georgia, serif" font-size="20" fill="#6F6A60" font-weight="400" xml:space="preserve" text-anchor="start" font-style="italic" letter-spacing="0">Sort by how often it applies, and by what happens if it’s ignored.</text><g transform="rotate(-2.2 245 445)"><rect x="80" y="210" width="330" height="470" fill="#FBF8F1" filter="url(#lift)"/><rect x="102" y="180" width="120" height="34" fill="#FBF8F1"/><text x="162" y="204" font-family="Kalam, 'Bradley Hand', cursive" font-size="24" fill="#6F6A60" font-weight="700" xml:space="preserve" text-anchor="middle" font-style="normal" letter-spacing="0">1</text><path d="M104.87314875074584 325.14677637276264 C160.70870469666514 326.09066821429315, 217.95063216312832 326.1964924813203, 385.5545150495004 326.19277235405906 M104.52800497506531 326.5560368177661 C170.74282642324894 325.29097165648005, 237.04743501304057 325.1282986863089, 385.76544380879795 326.17157352480143" stroke="#C8352B" stroke-width="1.4" fill="none" stroke-linecap="round" stroke-linejoin="round" opacity="0.6"/><text x="108" y="254" font-family="'Libre Baskerville', Georgia, serif" font-size="22" fill="#1D1D1B" font-weight="700" xml:space="preserve" text-anchor="start" font-style="normal" letter-spacing="0">Relevant to almost</text><text x="108" y="304" font-family="'Libre Baskerville', Georgia, serif" font-size="22" fill="#1D1D1B" font-weight="700" xml:space="preserve" text-anchor="start" font-style="normal" letter-spacing="0">every task?</text><path d="M139.2375791818127 340.19268528101594 C137.96965850693235 348.5351214651838, 129.26215395321697 373.5468090696906, 131.0511999200806 388.7673422107473 C132.84024588694422 403.987875351804, 146.67526970186086 424.25711185818665, 149.9718549829945 431.5158841273561 M141.30034974073237 339.12333489213967 C140.06562987564172 347.699427101454, 129.24370933012034 374.2372075723249, 130.54357847434645 389.8393351777383 C131.84344761857255 405.4414627831517, 145.59932369599505 425.4218627112993, 149.09956460608905 432.73610052462004" stroke="#6F6A60" stroke-width="2.2" fill="none" stroke-linecap="round" stroke-linejoin="round"/><path d="M149.4866548921913 432.31830096580086 C147.45597152657948 429.87968414397864, 145.47886242046792 429.6551185553356, 138.50249539293998 424.3799218096096 M149.74040860701353 431.66386914979665 C146.42007843295693 430.00966352321655, 142.59445387353406 426.8678175778907, 137.7656142789563 423.59166870287396" stroke="#6F6A60" stroke-width="2.2" fill="none" stroke-linecap="round" stroke-linejoin="round"/><path d="M148.8010129608214 431.696631809324 C151.27916172908095 427.98574734709143, 149.55120828907357 427.09493621638114, 150.78911367954794 416.76638259653697 M149.9512092690915 432.42262831516564 C149.94984034983386 427.78346144170445, 151.01916488160447 423.3354675392311, 151.9801647875655 416.79441771236014" stroke="#6F6A60" stroke-width="2.2" fill="none" stroke-linecap="round" stroke-linejoin="round"/><text x="108" y="490" font-family="Kalam, 'Bradley Hand', cursive" font-size="40" fill="#1D1D1B" font-weight="700" xml:space="preserve" text-anchor="start" font-style="normal" letter-spacing="0">custom</text><text x="108" y="536" font-family="Kalam, 'Bradley Hand', cursive" font-size="40" fill="#1D1D1B" font-weight="700" xml:space="preserve" text-anchor="start" font-style="normal" letter-spacing="0">instructions</text><text x="108" y="610" font-family="'IBM Plex Mono', Menlo, monospace" font-size="17" fill="#6F6A60" font-weight="400" xml:space="preserve" text-anchor="start" font-style="normal" letter-spacing="0">.github/copilot-</text><text x="108" y="638" font-family="'IBM Plex Mono', Menlo, monospace" font-size="17" fill="#6F6A60" font-weight="400" xml:space="preserve" text-anchor="start" font-style="normal" letter-spacing="0">instructions.md</text></g><g transform="rotate(1.6 613 445)"><rect x="448" y="210" width="330" height="470" fill="#FBF8F1" filter="url(#lift)"/><rect x="470" y="180" width="120" height="34" fill="#FBF8F1"/><text x="530" y="204" font-family="Kalam, 'Bradley Hand', cursive" font-size="24" fill="#6F6A60" font-weight="700" xml:space="preserve" text-anchor="middle" font-style="normal" letter-spacing="0">2</text><path d="M472.5245078019262 325.0585630974036 C527.9327615027252 328.53732047199975, 584.5926449642658 326.46112767249133, 754.0586701075006 327.15107083917144 M472.1648821296345 325.98105750786283 C562.6798703298849 325.3062644979637, 652.207046232328 324.9734127895485, 753.5691257174517 325.567814312002" stroke="#C8352B" stroke-width="1.4" fill="none" stroke-linecap="round" stroke-linejoin="round" opacity="0.6"/><text x="476" y="254" font-family="'Libre Baskerville', Georgia, serif" font-size="22" fill="#1D1D1B" font-weight="700" xml:space="preserve" text-anchor="start" font-style="normal" letter-spacing="0">Detailed, and needed</text><text x="476" y="304" font-family="'Libre Baskerville', Georgia, serif" font-size="22" fill="#1D1D1B" font-weight="700" xml:space="preserve" text-anchor="start" font-style="normal" letter-spacing="0">only sometimes?</text><path d="M508.32543890908363 339.8095803746879 C507.0413224536876 348.3041619535784, 497.2735386042893 375.11196764847637, 498.95426656010744 390.59312294766306 C500.6349945159256 406.07427824684976, 515.4236929358144 425.6497046998044, 518.4098066439926 432.69651216980816 M506.8629650455731 338.5383148589519 C505.60351342712124 346.66364056856804, 496.57799425220867 373.21178169714284, 498.39555646645306 388.52879215550394 C500.21311868069745 403.84580261386503, 514.7422027819423 423.44982046862214, 517.7683383310396 430.4403776091185" stroke="#6F6A60" stroke-width="2.2" fill="none" stroke-linecap="round" stroke-linejoin="round"/><path d="M517.1440871667116 432.2316243398935 C514.6432754346436 430.15213779922277, 512.0890537596525 427.7834163438803, 504.59786821731086 422.92152701544353 M518.5836112553254 432.29890581127256 C513.1345362203479 428.82801234108473, 508.5933348734102 426.0117522587355, 505.5727159913322 424.19842679894305" stroke="#6F6A60" stroke-width="2.2" fill="none" stroke-linecap="round" stroke-linejoin="round"/><path d="M518.8584452353418 431.6099551834166 C518.4305326762975 428.36765222160744, 518.5257177509023 425.33256566063017, 519.2844865039189 417.7079878023709 M517.5944119174034 431.85766497664156 C518.9990131526537 426.0411654843405, 519.3452875506446 420.150887609732, 519.7872664999414 417.40117580842923" stroke="#6F6A60" stroke-width="2.2" fill="none" stroke-linecap="round" stroke-linejoin="round"/><text x="476" y="490" font-family="Kalam, 'Bradley Hand', cursive" font-size="40" fill="#2E6BA6" font-weight="700" xml:space="preserve" text-anchor="start" font-style="normal" letter-spacing="0">a skill</text><text x="476" y="610" font-family="'IBM Plex Mono', Menlo, monospace" font-size="17" fill="#6F6A60" font-weight="400" xml:space="preserve" text-anchor="start" font-style="normal" letter-spacing="0">.github/skills/</text><text x="476" y="638" font-family="'IBM Plex Mono', Menlo, monospace" font-size="17" fill="#6F6A60" font-weight="400" xml:space="preserve" text-anchor="start" font-style="normal" letter-spacing="0">add-api-endpoint/</text></g><g transform="rotate(-1.4 981 445)"><rect x="816" y="210" width="330" height="470" fill="#FBF8F1" filter="url(#lift)"/><rect x="838" y="180" width="120" height="34" fill="#FBF8F1"/><text x="898" y="204" font-family="Kalam, 'Bradley Hand', cursive" font-size="24" fill="#6F6A60" font-weight="700" xml:space="preserve" text-anchor="middle" font-style="normal" letter-spacing="0">3</text><path d="M840.1758668531064 324.97034982204457 C897.5993667887853 325.09743089290635, 953.6772062454035 325.7243179868624, 1122.5628251655007 325.6668208442838 M839.8017592842037 325.40607819795963 C898.2169142365209 325.32155733944734, 955.7879316916154 326.03980113278806, 1122.5940818661056 326.1853293392025" stroke="#C8352B" stroke-width="1.4" fill="none" stroke-linecap="round" stroke-linejoin="round" opacity="0.6"/><text x="844" y="254" font-family="'Libre Baskerville', Georgia, serif" font-size="22" fill="#1D1D1B" font-weight="700" xml:space="preserve" text-anchor="start" font-style="normal" letter-spacing="0">Has side effects,</text><text x="844" y="304" font-family="'Libre Baskerville', Georgia, serif" font-size="22" fill="#1D1D1B" font-weight="700" xml:space="preserve" text-anchor="start" font-style="normal" letter-spacing="0">like a deploy?</text><path d="M874.7292986363545 339.4264754683599 C873.4289864004429 347.6258691086397, 864.8375899220283 374.44045956059546, 866.8573332001343 389.73490368457885 C868.8770764782404 405.02934780856225, 883.7247828364348 424.35829754142213, 886.8477583049909 431.1931402122602 M876.5241803504139 337.9532948257641 C875.2399969786007 346.3109540356821, 864.595379174297 375.6018558219607, 866.2475344585597 391.31684913326956 C867.8996897428224 407.0318424445784, 883.2019818678896 425.576378225945, 886.43711205599 432.243254693617" stroke="#6F6A60" stroke-width="2.2" fill="none" stroke-linecap="round" stroke-linejoin="round"/><path d="M884.8015194412321 432.144947713986 C884.2305793427076 430.62471091504716, 881.099245098837 428.51183359300524, 873.0932410416817 423.8631322212774 M886.2268139036372 431.7339424727485 C882.4829719867414 429.30242018082305, 879.7276871095421 427.26780498332056, 873.3798177037081 423.60518489501214" stroke="#6F6A60" stroke-width="2.2" fill="none" stroke-linecap="round" stroke-linejoin="round"/><path d="M886.5158775098622 431.5232785575092 C885.581903623514 428.7728420368314, 887.5002272127309 425.9934800455873, 887.7798593282897 416.2495930082048 M886.4376145657152 432.4927016381174 C886.7959919666058 428.5080015924609, 887.3281544719667 424.1612868704936, 887.5943682123172 416.8079339044983" stroke="#6F6A60" stroke-width="2.2" fill="none" stroke-linecap="round" stroke-linejoin="round"/><text x="844" y="490" font-family="Kalam, 'Bradley Hand', cursive" font-size="40" fill="#1D1D1B" font-weight="700" xml:space="preserve" text-anchor="start" font-style="normal" letter-spacing="0">a skill you</text><text x="844" y="536" font-family="Kalam, 'Bradley Hand', cursive" font-size="40" fill="#1D1D1B" font-weight="700" xml:space="preserve" text-anchor="start" font-style="normal" letter-spacing="0">invoke</text><text x="844" y="610" font-family="'IBM Plex Mono', Menlo, monospace" font-size="17" fill="#6F6A60" font-weight="400" xml:space="preserve" text-anchor="start" font-style="normal" letter-spacing="0">disable-model-</text><text x="844" y="638" font-family="'IBM Plex Mono', Menlo, monospace" font-size="17" fill="#6F6A60" font-weight="400" xml:space="preserve" text-anchor="start" font-style="normal" letter-spacing="0">invocation: true</text></g><g transform="rotate(2.4 1349 445)"><rect x="1184" y="210" width="330" height="470" fill="#FBF8F1" filter="url(#lift)"/><rect x="1206" y="180" width="120" height="34" fill="#FBF8F1"/><text x="1266" y="204" font-family="Kalam, 'Bradley Hand', cursive" font-size="24" fill="#6F6A60" font-weight="700" xml:space="preserve" text-anchor="middle" font-style="normal" letter-spacing="0">4</text><path d="M1207.8272259042867 324.8821365466855 C1264.8234235948453 324.1000897938129, 1320.3192190465409 324.9875083012334, 1491.0669802235009 326.62511932939617 M1207.4386364387728 326.0523731280564 C1290.1539581431568 326.558124420931, 1372.168817150903 325.88491523602767, 1490.3977637747594 325.58157012640305" stroke="#C8352B" stroke-width="1.4" fill="none" stroke-linecap="round" stroke-linejoin="round" opacity="0.6"/><text x="1212" y="254" font-family="'Libre Baskerville', Georgia, serif" font-size="22" fill="#1D1D1B" font-weight="700" xml:space="preserve" text-anchor="start" font-style="normal" letter-spacing="0">Must never</text><text x="1212" y="304" font-family="'Libre Baskerville', Georgia, serif" font-size="22" fill="#1D1D1B" font-weight="700" xml:space="preserve" text-anchor="start" font-style="normal" letter-spacing="0">happen?</text><path d="M1243.8171583636254 339.04337056203184 C1242.500650347198 347.39490959703426, 1232.8489745731006 373.3216181393812, 1234.7603998401612 388.8766844214946 C1236.6718251072218 404.431750703608, 1252.0258727370551 425.30355704970657, 1255.285709965989 432.3737682547122 M1242.0867956552545 341.4668747925763 C1240.7778805300802 350.0568675027961, 1231.9296640963853 374.57642994677866, 1234.0995124506662 390.0063061110352 C1236.2693608049472 405.43618227529174, 1251.6617609538366 427.0198359832679, 1255.1058857809405 434.0461317781155" stroke="#6F6A60" stroke-width="2.2" fill="none" stroke-linecap="round" stroke-linejoin="round"/><path d="M1254.8589517157525 432.05827108807864 C1251.5503679725211 430.8971645702911, 1250.2419211597708 429.0401313815499, 1241.5886138660526 424.8047374271113 M1253.870016551949 432.36897913422433 C1250.3974297741322 429.5208884592715, 1245.7265681094182 426.6118591247456, 1241.186919416084 424.21194299108123" stroke="#6F6A60" stroke-width="2.2" fill="none" stroke-linecap="round" stroke-linejoin="round"/><path d="M1254.1733097843826 431.4366019316018 C1255.3721423407126 429.15474691134733, 1254.3136044445416 426.63110948983643, 1256.2752321526605 417.1911982140387 M1254.080817214027 431.92773829959333 C1254.8840325394078 426.7889905758051, 1254.693144910989 420.99999188170256, 1255.4014699246932 417.4146920005674" stroke="#6F6A60" stroke-width="2.2" fill="none" stroke-linecap="round" stroke-linejoin="round"/><text x="1212" y="490" font-family="Kalam, 'Bradley Hand', cursive" font-size="40" fill="#C8352B" font-weight="700" xml:space="preserve" text-anchor="start" font-style="normal" letter-spacing="0">a hook or CI</text><text x="1212" y="536" font-family="Kalam, 'Bradley Hand', cursive" font-size="40" fill="#C8352B" font-weight="700" xml:space="preserve" text-anchor="start" font-style="normal" letter-spacing="0">check</text><text x="1212" y="610" font-family="'IBM Plex Mono', Menlo, monospace" font-size="17" fill="#6F6A60" font-weight="400" xml:space="preserve" text-anchor="start" font-style="normal" letter-spacing="0">branch protection,</text><text x="1212" y="638" font-family="'IBM Plex Mono', Menlo, monospace" font-size="17" fill="#6F6A60" font-weight="400" xml:space="preserve" text-anchor="start" font-style="normal" letter-spacing="0">a required CI check</text></g><text x="800" y="790" font-family="Kalam, 'Bradley Hand', cursive" font-size="32" fill="#1D1D1B" font-weight="700" xml:space="preserve" text-anchor="middle" font-style="normal" letter-spacing="0" transform="rotate(-0.8 800 790)">instructions and skills are suggestions. only the last card is a guarantee.</text><text x="80" y="868" font-family="'Libre Baskerville', Georgia, serif" font-size="14" fill="#6F6A60" font-weight="400" xml:space="preserve" text-anchor="start" font-style="italic" letter-spacing="0">GitHub Docs: custom instructions for almost every task, skills when relevant. VS Code: disable-model-invocation.</text><rect x="-50" y="-50" width="1700" height="1000" filter="url(#grain)"/></svg>